<svg xmlns="http://www.w3.org/2000/svg" viewBox="0 0 1365.6125000000002 1102.8" width="1365.6125000000002" height="1102.8" style="--bg:#ffffff;--fg:#1f2328;--line:#d1d9e0;--accent:#0969da;--muted:#59636e;background:var(--bg)">
<style>
  @import url('https://fonts.googleapis.com/css2?family=Inter:wght@400;500;600;700&amp;display=swap');
  text { font-family: 'Inter', system-ui, sans-serif; }
  svg {
    /* Derived from --bg and --fg (overridable via --line, --accent, etc.) */
    --_text:          var(--fg);
    --_text-sec:      var(--muted, color-mix(in srgb, var(--fg) 60%, var(--bg)));
    --_text-muted:    var(--muted, color-mix(in srgb, var(--fg) 40%, var(--bg)));
    --_text-faint:    color-mix(in srgb, var(--fg) 25%, var(--bg));
    --_line:          var(--line, color-mix(in srgb, var(--fg) 30%, var(--bg)));
    --_arrow:         var(--accent, color-mix(in srgb, var(--fg) 50%, var(--bg)));
    --_node-fill:     var(--surface, color-mix(in srgb, var(--fg) 3%, var(--bg)));
    --_node-stroke:   var(--border, color-mix(in srgb, var(--fg) 20%, var(--bg)));
    --_group-fill:    var(--bg);
    --_group-hdr:     color-mix(in srgb, var(--fg) 5%, var(--bg));
    --_inner-stroke:  color-mix(in srgb, var(--fg) 12%, var(--bg));
    --_key-badge:     color-mix(in srgb, var(--fg) 10%, var(--bg));
  }
</style>
<defs>
  <marker id="arrowhead" markerWidth="8" markerHeight="4.8" refX="8" refY="2.4" orient="auto">
    <polygon points="0 0, 8 2.4, 0 4.8" fill="var(--_arrow)" />
  </marker>
  <marker id="arrowhead-start" markerWidth="8" markerHeight="4.8" refX="0" refY="2.4" orient="auto-start-reverse">
    <polygon points="8 0, 0 2.4, 8 4.8" fill="var(--_arrow)" />
  </marker>
</defs>
<polyline points="484.4000000000001,76 484.4000000000001,116" fill="none" stroke="var(--_line)" stroke-width="0.75" marker-end="url(#arrowhead)" />
<polyline points="484.4000000000001,152 484.4000000000001,172 299.1,172 299.1,192" fill="none" stroke="var(--_line)" stroke-width="0.75" marker-end="url(#arrowhead)" />
<polyline points="299.1,228 299.1,268" fill="none" stroke="var(--_line)" stroke-width="0.75" marker-end="url(#arrowhead)" />
<polyline points="265.2458402449917,440.2958402449917 265.2458402449917,502.65 234.75,502.65 234.75,531.15" fill="none" stroke="var(--_line)" stroke-width="0.75" marker-end="url(#arrowhead)" />
<polyline points="374.57892079560486,398.67107920439514 374.57892079560486,502.65 658.975,502.65 658.975,531.15" fill="none" stroke="var(--_line)" stroke-width="0.75" marker-end="url(#arrowhead)" />
<polyline points="658.975,567.15 658.975,607.15" fill="none" stroke="var(--_line)" stroke-width="0.75" marker-end="url(#arrowhead)" />
<polyline points="484.4000000000001,152 484.4000000000001,172 1029.575,172 1029.575,192" fill="none" stroke="var(--_line)" stroke-width="0.75" marker-end="url(#arrowhead)" />
<polyline points="1029.575,228 1029.575,353.075" fill="none" stroke="var(--_line)" stroke-width="0.75" marker-end="url(#arrowhead)" />
<polyline points="1029.575,389.075 1029.575,531.15" fill="none" stroke="var(--_line)" stroke-width="0.75" marker-end="url(#arrowhead)" />
<polyline points="1029.575,567.15 1029.575,607.15" fill="none" stroke="var(--_line)" stroke-width="0.75" marker-end="url(#arrowhead)" />
<polyline points="1029.575,643.15 1029.575,683.15" fill="none" stroke="var(--_line)" stroke-width="0.75" marker-end="url(#arrowhead)" />
<polyline points="1029.575,719.15 1029.575,759.15" fill="none" stroke="var(--_line)" stroke-width="0.75" marker-end="url(#arrowhead)" />
<polyline points="976.4817234247898,840.7067234247897 976.4817234247898,922.3 672.0875000000001,922.3 672.0875000000001,950.8" fill="none" stroke="var(--_line)" stroke-width="0.75" marker-end="url(#arrowhead)" />
<polyline points="988.7350130856469,852.9600130856469 988.7350130856469,922.3 881.8125,922.3 881.8125,950.8" fill="none" stroke="var(--_line)" stroke-width="0.75" marker-end="url(#arrowhead)" />
<polyline points="1070.4149869143532,852.9600130856469 1070.4149869143532,922.3 1177.3375,922.3 1177.3375,950.8" fill="none" stroke="var(--_line)" stroke-width="0.75" marker-end="url(#arrowhead)" />
<polyline points="881.8125,986.8 881.8125,1026.8" fill="none" stroke="var(--_line)" stroke-width="0.75" marker-end="url(#arrowhead)" />
<rect x="218.17000000000002" y="489.15" width="33.16" height="27" rx="4" ry="4" fill="var(--bg)" stroke="var(--_inner-stroke)" stroke-width="0.5" />
<text x="234.75" y="502.65" text-anchor="middle" dy="0.35em" font-size="11" font-weight="400" fill="var(--_text-muted)">Yes</text>
<rect x="645.255" y="489.15" width="27.44" height="27" rx="4" ry="4" fill="var(--bg)" stroke="var(--_inner-stroke)" stroke-width="0.5" />
<text x="658.975" y="502.65" text-anchor="middle" dy="0.35em" font-size="11" font-weight="400" fill="var(--_text-muted)">No</text>
<rect x="658.3675000000001" y="908.8" width="27.44" height="27" rx="4" ry="4" fill="var(--bg)" stroke="var(--_inner-stroke)" stroke-width="0.5" />
<text x="672.0875000000001" y="922.3" text-anchor="middle" dy="0.35em" font-size="11" font-weight="400" fill="var(--_text-muted)">T1</text>
<rect x="868.0925" y="908.8" width="27.44" height="27" rx="4" ry="4" fill="var(--bg)" stroke="var(--_inner-stroke)" stroke-width="0.5" />
<text x="881.8125" y="922.3" text-anchor="middle" dy="0.35em" font-size="11" font-weight="400" fill="var(--_text-muted)">T2</text>
<rect x="1163.6175" y="908.8" width="27.44" height="27" rx="4" ry="4" fill="var(--bg)" stroke="var(--_inner-stroke)" stroke-width="0.5" />
<text x="1177.3375" y="922.3" text-anchor="middle" dy="0.35em" font-size="11" font-weight="400" fill="var(--_text-muted)">T3</text>
<rect x="368.30000000000007" y="40" width="232.20000000000002" height="36" rx="0" ry="0" fill="var(--_node-fill)" stroke="var(--_node-stroke)" stroke-width="0.75" />
<rect x="332.55000000000007" y="116" width="303.70000000000005" height="36" rx="0" ry="0" fill="var(--_node-fill)" stroke="var(--_node-stroke)" stroke-width="0.75" />
<rect x="183" y="192" width="232.20000000000002" height="36" rx="0" ry="0" fill="var(--_node-fill)" stroke="var(--_node-stroke)" stroke-width="0.75" />
<polygon points="299.1,268 402.175,371.075 299.1,474.15 196.02500000000003,371.075" fill="var(--_node-fill)" stroke="var(--_node-stroke)" stroke-width="0.75" />
<rect x="39.99999999999997" y="531.15" width="389.50000000000006" height="36" rx="0" ry="0" fill="var(--_node-fill)" stroke="var(--_node-stroke)" stroke-width="0.75" />
<rect x="453.5" y="531.15" width="410.95000000000005" height="36" rx="0" ry="0" fill="var(--_node-fill)" stroke="var(--_node-stroke)" stroke-width="0.75" />
<rect x="496.4" y="607.15" width="325.15000000000003" height="36" rx="0" ry="0" fill="var(--_node-fill)" stroke="var(--_node-stroke)" stroke-width="0.75" />
<rect x="845.5500000000001" y="192" width="368.05" height="36" rx="0" ry="0" fill="var(--_node-fill)" stroke="var(--_node-stroke)" stroke-width="0.75" />
<rect x="877.725" y="353.075" width="303.70000000000005" height="36" rx="0" ry="0" fill="var(--_node-fill)" stroke="var(--_node-stroke)" stroke-width="0.75" />
<rect x="888.45" y="531.15" width="282.25" height="36" rx="0" ry="0" fill="var(--_node-fill)" stroke="var(--_node-stroke)" stroke-width="0.75" />
<rect x="899.1750000000001" y="607.15" width="260.8" height="36" rx="0" ry="0" fill="var(--_node-fill)" stroke="var(--_node-stroke)" stroke-width="0.75" />
<rect x="888.45" y="683.15" width="282.25" height="36" rx="0" ry="0" fill="var(--_node-fill)" stroke="var(--_node-stroke)" stroke-width="0.75" />
<polygon points="1029.575,759.15 1096.9,826.475 1029.575,893.8000000000001 962.25,826.475" fill="var(--_node-fill)" stroke="var(--_node-stroke)" stroke-width="0.75" />
<rect x="609.6125000000001" y="950.8" width="124.95" height="36" rx="0" ry="0" fill="var(--_node-fill)" stroke="var(--_node-stroke)" stroke-width="0.75" />
<rect x="758.5625" y="950.8" width="246.50000000000003" height="36" rx="0" ry="0" fill="var(--_node-fill)" stroke="var(--_node-stroke)" stroke-width="0.75" />
<rect x="1029.0625" y="950.8" width="296.55" height="36" rx="0" ry="0" fill="var(--_node-fill)" stroke="var(--_node-stroke)" stroke-width="0.75" />
<rect x="769.2875" y="1026.8" width="225.05" height="36" rx="0" ry="0" fill="var(--_node-fill)" stroke="var(--_node-stroke)" stroke-width="0.75" />
<text x="484.4000000000001" y="58" text-anchor="middle" dy="0.35em" font-size="13" font-weight="500" fill="var(--_text)">User clicks fake play button</text>
<text x="484.4000000000001" y="134" text-anchor="middle" dy="0.35em" font-size="13" font-weight="500" fill="var(--_text)">Navigation popup overlay iframe events</text>
<text x="299.1" y="210" text-anchor="middle" dy="0.35em" font-size="13" font-weight="500" fill="var(--_text)">uBOL Lite browser DNR engine</text>
<text x="299.1" y="371.075" text-anchor="middle" dy="0.35em" font-size="13" font-weight="500" fill="var(--_text)">Compiled rule matches</text>
<text x="234.75" y="549.15" text-anchor="middle" dy="0.35em" font-size="13" font-weight="500" fill="var(--_text)">Browser blocks redirects or hides by cosmetic rule</text>
<text x="658.975" y="549.15" text-anchor="middle" dy="0.35em" font-size="13" font-weight="500" fill="var(--_text)">Request or element passes unless another rule matches</text>
<text x="658.975" y="625.15" text-anchor="middle" dy="0.35em" font-size="13" font-weight="500" fill="var(--_text)">New coverage waits for filter list update</text>
<text x="1029.575" y="210" text-anchor="middle" dy="0.35em" font-size="13" font-weight="500" fill="var(--_text)">Falcon content scripts observe runtime behavior</text>
<text x="1029.575" y="371.075" text-anchor="middle" dy="0.35em" font-size="13" font-weight="500" fill="var(--_text)">Deterministic rules handle known traps</text>
<text x="1029.575" y="549.15" text-anchor="middle" dy="0.35em" font-size="13" font-weight="500" fill="var(--_text)">Telemetry updates host risk profile</text>
<text x="1029.575" y="625.15" text-anchor="middle" dy="0.35em" font-size="13" font-weight="500" fill="var(--_text)">AI provider synthesizes advisory</text>
<text x="1029.575" y="701.15" text-anchor="middle" dy="0.35em" font-size="13" font-weight="500" fill="var(--_text)">Candidate selectors domains actions</text>
<text x="1029.575" y="826.475" text-anchor="middle" dy="0.35em" font-size="13" font-weight="500" fill="var(--_text)">Policy Gate</text>
<text x="672.0875000000001" y="968.8" text-anchor="middle" dy="0.35em" font-size="13" font-weight="500" fill="var(--_text)">Advisory only</text>
<text x="881.8125" y="968.8" text-anchor="middle" dy="0.35em" font-size="13" font-weight="500" fill="var(--_text)">Temporary reversible hardening</text>
<text x="1177.3375" y="968.8" text-anchor="middle" dy="0.35em" font-size="13" font-weight="500" fill="var(--_text)">Development review and rule promotion</text>
<text x="881.8125" y="1044.8" text-anchor="middle" dy="0.35em" font-size="13" font-weight="500" fill="var(--_text)">No durable runtime mutation</text>
</svg>