<svg width="128" height="128" viewBox="0 0 128 128" xmlns="http://www.w3.org/2000/svg" role="img" aria-label="Falcon-Player-Enhance logo">
  <defs>
    <linearGradient id="bgGradient" x1="12" y1="12" x2="116" y2="116" gradientUnits="userSpaceOnUse">
      <stop offset="0" stop-color="#0F172A"/>
      <stop offset="1" stop-color="#134E4A"/>
    </linearGradient>
    <linearGradient id="shieldGradient" x1="64" y1="24" x2="64" y2="106" gradientUnits="userSpaceOnUse">
      <stop offset="0" stop-color="#E2F1FF"/>
      <stop offset="1" stop-color="#B7DBFF"/>
    </linearGradient>
    <radialGradient id="playGlow" cx="0" cy="0" r="1" gradientUnits="userSpaceOnUse" gradientTransform="translate(72 66) rotate(130) scale(44 56)">
      <stop offset="0" stop-color="#22D3EE" stop-opacity="0.85"/>
      <stop offset="1" stop-color="#22D3EE" stop-opacity="0"/>
    </radialGradient>
    <filter id="drop" x="-20%" y="-20%" width="140%" height="160%">
      <feDropShadow dx="0" dy="5" stdDeviation="5" flood-color="#001018" flood-opacity="0.42"/>
    </filter>
  </defs>

  <rect x="8" y="8" width="112" height="112" rx="28" fill="url(#bgGradient)"/>
  <rect x="13" y="13" width="102" height="102" rx="23" fill="none" stroke="#57D3CE" stroke-opacity="0.24"/>

  <path d="M64 24L94 37V70C94 89 82 101 64 106C46 101 34 89 34 70V37L64 24Z" fill="url(#shieldGradient)" filter="url(#drop)"/>
  <path d="M64 29L88 39V69C88 85 78 95 64 99C50 95 40 85 40 69V39L64 29Z" fill="none" stroke="#0F172A" stroke-opacity="0.2"/>

  <circle cx="68" cy="64" r="28" fill="url(#playGlow)"/>
  <path d="M57 49C57 47.4 58.8 46.5 60.1 47.4L82.6 62.2C83.8 63 83.8 64.9 82.6 65.7L60.1 80.6C58.8 81.4 57 80.5 57 78.9V49Z" fill="#0B2233"/>

  <path d="M44 36L47 39L44 42L41 39L44 36Z" fill="#D2F8FF" fill-opacity="0.95"/>
  <path d="M84 30L86.4 32.4L84 34.8L81.6 32.4L84 30Z" fill="#9AF0FF" fill-opacity="0.8"/>
</svg>
